<svg preserveAspectRatio="none" overflow="visible" style="display: block;" width="32" height="32" viewBox="0 0 32 32" fill="none" xmlns="http://www.w3.org/2000/svg">
<g id="library_books">
<mask id="mask0_0_4" style="mask-type:alpha" maskUnits="userSpaceOnUse" x="0" y="0" width="32" height="32">
<rect id="Bounding box" width="32" height="32" fill="#D9D9D9"/>
</mask>
<g mask="url(#mask0_0_4)">
<path id="library_books_2" d="M13.3333 18.6667H18.6667V16H13.3333V18.6667ZM13.3333 14.6667H24V12H13.3333V14.6667ZM13.3333 10.6667H24V8H13.3333V10.6667ZM10.6667 24C9.93333 24 9.30556 23.7389 8.78333 23.2167C8.26111 22.6944 8 22.0667 8 21.3333V5.33333C8 4.6 8.26111 3.97222 8.78333 3.45C9.30556 2.92778 9.93333 2.66667 10.6667 2.66667H26.6667C27.4 2.66667 28.0278 2.92778 28.55 3.45C29.0722 3.97222 29.3333 4.6 29.3333 5.33333V21.3333C29.3333 22.0667 29.0722 22.6944 28.55 23.2167C28.0278 23.7389 27.4 24 26.6667 24H10.6667ZM10.6667 21.3333H26.6667V5.33333H10.6667V21.3333ZM5.33333 29.3333C4.6 29.3333 3.97222 29.0722 3.45 28.55C2.92778 28.0278 2.66667 27.4 2.66667 26.6667V8H5.33333V26.6667H24V29.3333H5.33333Z" fill="#1C1B1F"/>
</g>
</g>
</svg>
